<svg width="25" height="25" viewBox="0 0 25 25" fill="none" xmlns="http://www.w3.org/2000/svg">
<g id="fluent:people-team-16-regular">
<path id="Vector" d="M9.37812 6.25C9.37812 5.42203 9.70704 4.62797 10.2925 4.0425C10.878 3.45704 11.672 3.12813 12.5 3.12813C13.328 3.12813 14.122 3.45704 14.7075 4.0425C15.293 4.62797 15.6219 5.42203 15.6219 6.25C15.6219 7.07798 15.293 7.87204 14.7075 8.4575C14.122 9.04297 13.328 9.37188 12.5 9.37188C11.672 9.37188 10.878 9.04297 10.2925 8.4575C9.70704 7.87204 9.37812 7.07798 9.37812 6.25ZM12.5 4.69063C12.2952 4.69063 12.0924 4.73096 11.9033 4.80933C11.7141 4.88769 11.5422 5.00256 11.3974 5.14736C11.2526 5.29216 11.1377 5.46406 11.0593 5.65326C10.981 5.84245 10.9406 6.04522 10.9406 6.25C10.9406 6.45478 10.981 6.65756 11.0593 6.84675C11.1377 7.03594 11.2526 7.20785 11.3974 7.35265C11.5422 7.49745 11.7141 7.61231 11.9033 7.69068C12.0924 7.76904 12.2952 7.80938 12.5 7.80938C12.9136 7.80938 13.3102 7.64509 13.6026 7.35265C13.8951 7.06021 14.0594 6.66357 14.0594 6.25C14.0594 5.83643 13.8951 5.4398 13.6026 5.14736C13.3102 4.85492 12.9136 4.69063 12.5 4.69063ZM17.1875 7.03125C17.1875 6.72347 17.2481 6.4187 17.3659 6.13434C17.4837 5.84998 17.6563 5.59161 17.874 5.37397C18.0916 5.15633 18.35 4.98369 18.6343 4.86591C18.9187 4.74813 19.2235 4.6875 19.5312 4.6875C19.839 4.6875 20.1438 4.74813 20.4282 4.86591C20.7125 4.98369 20.9709 5.15633 21.1885 5.37397C21.4062 5.59161 21.5788 5.84998 21.6966 6.13434C21.8144 6.4187 21.875 6.72347 21.875 7.03125C21.875 7.65285 21.6281 8.249 21.1885 8.68853C20.749 9.12807 20.1529 9.375 19.5312 9.375C18.9096 9.375 18.3135 9.12807 17.874 8.68853C17.4344 8.249 17.1875 7.65285 17.1875 7.03125ZM19.5312 6.25C19.324 6.25 19.1253 6.33231 18.9788 6.47883C18.8323 6.62534 18.75 6.82405 18.75 7.03125C18.75 7.23845 18.8323 7.43717 18.9788 7.58368C19.1253 7.73019 19.324 7.8125 19.5312 7.8125C19.7385 7.8125 19.9372 7.73019 20.0837 7.58368C20.2302 7.43717 20.3125 7.23845 20.3125 7.03125C20.3125 6.82405 20.2302 6.62534 20.0837 6.47883C19.9372 6.33231 19.7385 6.25 19.5312 6.25ZM5.46875 4.6875C4.84715 4.6875 4.25101 4.93443 3.81147 5.37397C3.37193 5.81351 3.125 6.40965 3.125 7.03125C3.125 7.65285 3.37193 8.249 3.81147 8.68853C4.25101 9.12807 4.84715 9.375 5.46875 9.375C6.09035 9.375 6.68649 9.12807 7.12603 8.68853C7.56557 8.249 7.8125 7.65285 7.8125 7.03125C7.8125 6.40965 7.56557 5.81351 7.12603 5.37397C6.68649 4.93443 6.09035 4.6875 5.46875 4.6875ZM4.6875 7.03125C4.6875 6.82405 4.76981 6.62534 4.91632 6.47883C5.06284 6.33231 5.26155 6.25 5.46875 6.25C5.67595 6.25 5.87466 6.33231 6.02118 6.47883C6.16769 6.62534 6.25 6.82405 6.25 7.03125C6.25 7.23845 6.16769 7.43717 6.02118 7.58368C5.87466 7.73019 5.67595 7.8125 5.46875 7.8125C5.26155 7.8125 5.06284 7.73019 4.91632 7.58368C4.76981 7.43717 4.6875 7.23845 4.6875 7.03125ZM6.66875 10.9375C6.39376 11.4123 6.24929 11.9513 6.25 12.5H3.125V16.4063C3.12487 16.7949 3.2214 17.1775 3.40589 17.5196C3.59037 17.8616 3.85703 18.1525 4.18186 18.3659C4.50668 18.5793 4.87948 18.7085 5.26668 18.742C5.65388 18.7755 6.04334 18.7122 6.4 18.5578C6.51563 19.075 6.69688 19.5688 6.93125 20.0297C6.33823 20.2691 5.69548 20.3593 5.05946 20.2923C4.42344 20.2253 3.81361 20.0031 3.2835 19.6454C2.7534 19.2876 2.31925 18.8051 2.01918 18.2404C1.7191 17.6756 1.56229 17.0458 1.5625 16.4063V12.5C1.5625 12.0856 1.72712 11.6882 2.02015 11.3951C2.31317 11.1021 2.7106 10.9375 3.125 10.9375H6.66875ZM18.0688 20.0297C18.6618 20.2691 19.3045 20.3593 19.9405 20.2923C20.5766 20.2253 21.1864 20.0031 21.7165 19.6454C22.2466 19.2876 22.6808 18.8051 22.9808 18.2404C23.2809 17.6756 23.4377 17.0458 23.4375 16.4063V12.5C23.4375 12.0856 23.2729 11.6882 22.9799 11.3951C22.6868 11.1021 22.2894 10.9375 21.875 10.9375H18.3313C18.5969 11.3969 18.75 11.9297 18.75 12.5H21.875V16.4063C21.8751 16.7949 21.7786 17.1775 21.5941 17.5196C21.4096 17.8616 21.143 18.1525 20.8181 18.3659C20.4933 18.5793 20.1205 18.7085 19.7333 18.742C19.3461 18.7755 18.9567 18.7122 18.6 18.5578C18.4828 19.075 18.3031 19.5688 18.0688 20.0297ZM9.375 10.9359C8.9606 10.9359 8.56317 11.1006 8.27015 11.3936C7.97712 11.6866 7.8125 12.084 7.8125 12.4984V17.1875C7.8125 18.4307 8.30636 19.623 9.18544 20.5021C10.0645 21.3811 11.2568 21.875 12.5 21.875C13.7432 21.875 14.9355 21.3811 15.8146 20.5021C16.6936 19.623 17.1875 18.4307 17.1875 17.1875V12.5C17.1875 12.0856 17.0229 11.6882 16.7299 11.3951C16.4368 11.1021 16.0394 10.9375 15.625 10.9375H9.375V10.9359ZM9.375 12.4984H15.625V17.1875C15.625 18.0163 15.2958 18.8112 14.7097 19.3972C14.1237 19.9833 13.3288 20.3125 12.5 20.3125C11.6712 20.3125 10.8763 19.9833 10.2903 19.3972C9.70424 18.8112 9.375 18.0163 9.375 17.1875V12.5V12.4984Z" fill="#E7EBF7" stroke="#E7EBF7" stroke-width="0.5"/>
</g>
</svg>
