<svg width="25" height="25" viewBox="0 0 25 25" fill="none" xmlns="http://www.w3.org/2000/svg">
<g id="ic:outline-work-outline">
<path id="Vector" d="M14.5833 6.24999V4.16666H10.4167V6.24999H14.5833ZM4.16666 8.33333V19.7917H20.8333V8.33333H4.16666ZM20.8333 6.24999C21.9896 6.24999 22.9167 7.17708 22.9167 8.33333V19.7917C22.9167 20.9479 21.9896 21.875 20.8333 21.875H4.16666C3.01041 21.875 2.08333 20.9479 2.08333 19.7917L2.09374 8.33333C2.09374 7.17708 3.01041 6.24999 4.16666 6.24999H8.33333V4.16666C8.33333 3.01041 9.26041 2.08333 10.4167 2.08333H14.5833C15.7396 2.08333 16.6667 3.01041 16.6667 4.16666V6.24999H20.8333Z" fill="#E7EBF7"/>
</g>
</svg>
