<svg width="25" height="25" viewBox="0 0 25 25" fill="none" xmlns="http://www.w3.org/2000/svg">
<g id="lucide:helping-hand">
<path id="Vector" d="M3.12499 15.625L8.45833 10.2917C9.04382 9.70545 9.83814 9.37573 10.6667 9.375H13.5417C14.0942 9.375 14.6241 9.59449 15.0148 9.9852C15.4055 10.3759 15.625 10.9058 15.625 11.4583C15.625 12.0109 15.4055 12.5408 15.0148 12.9315C14.6241 13.3222 14.0942 13.5417 13.5417 13.5417H10.9375M15.1042 12.8333L19.4479 7.73958C19.7835 7.3676 20.2489 7.13837 20.7483 7.09907C21.2478 7.05977 21.7433 7.21338 22.1329 7.52829C22.5226 7.84321 22.7767 8.29548 22.8431 8.79206C22.9094 9.28865 22.7829 9.79177 22.4896 10.1979L18.1146 16.3854C17.8282 16.7912 17.4491 17.1229 17.0089 17.353C16.5687 17.583 16.08 17.7049 15.5833 17.7083H10.2396C9.96467 17.7081 9.69244 17.7623 9.43857 17.8678C9.1847 17.9733 8.95422 18.1279 8.76041 18.3229L7.29166 19.7917M2.08333 14.5833L8.33333 20.8333" stroke="#E7EBF7" stroke-width="2" stroke-linecap="round" stroke-linejoin="round"/>
</g>
</svg>
