<svg width="25" height="25" viewBox="0 0 25 25" fill="none" xmlns="http://www.w3.org/2000/svg">
<g id="material-symbols:social-leaderboard-outline-rounded">
<path id="Vector" d="M12.5 20.8333C13.8021 20.8333 14.909 20.3774 15.8208 19.4656C16.7326 18.5538 17.1882 17.4472 17.1875 16.1458C17.1875 14.8437 16.7316 13.7368 15.8198 12.825C14.908 11.9132 13.8014 11.4576 12.5 11.4583C11.1979 11.4583 10.091 11.9142 9.17918 12.826C8.26737 13.7378 7.81182 14.8444 7.81251 16.1458C7.81251 17.4479 8.26841 18.5549 9.18022 19.4667C10.092 20.3785 11.1986 20.834 12.5 20.8333ZM9.45314 10.1042C9.80036 9.91319 10.1695 9.76145 10.5604 9.64895C10.9514 9.53645 11.3462 9.4625 11.7448 9.42708L9.11459 4.16666H6.51043L9.45314 10.1042ZM6.66668 19.5833C6.37154 19.0799 6.14133 18.5371 5.97605 17.9552C5.81077 17.3733 5.72848 16.7701 5.72918 16.1458C5.72918 15.5208 5.81182 14.9174 5.97709 14.3354C6.14237 13.7535 6.37223 13.2111 6.66668 12.7083C5.93751 12.9514 5.33855 13.3812 4.8698 13.9979C4.40105 14.6146 4.16668 15.3306 4.16668 16.1458C4.16668 16.9618 4.40105 17.6781 4.8698 18.2948C5.33855 18.9115 5.93751 19.341 6.66668 19.5833ZM18.3333 19.5833C19.0625 19.3403 19.6615 18.9104 20.1302 18.2937C20.599 17.6771 20.8333 16.9611 20.8333 16.1458C20.8333 15.3299 20.599 14.6135 20.1302 13.9969C19.6615 13.3802 19.0625 12.9507 18.3333 12.7083C18.6285 13.2118 18.8587 13.7545 19.024 14.3365C19.1892 14.9184 19.2715 15.5215 19.2708 16.1458C19.2708 16.7708 19.1882 17.3743 19.0229 17.9562C18.8576 18.5382 18.6278 19.0806 18.3333 19.5833ZM12.5 22.9167C11.8056 22.9167 11.1413 22.8167 10.5073 22.6167C9.87327 22.4167 9.28751 22.1434 8.75001 21.7969C8.59376 21.8316 8.43751 21.8535 8.28126 21.8625C8.12501 21.8715 7.96008 21.8757 7.78647 21.875C6.20661 21.875 4.86112 21.3194 3.75001 20.2083C2.6389 19.0972 2.08334 17.7517 2.08334 16.1719C2.08334 14.6615 2.58682 13.3681 3.59376 12.2917C4.6007 11.2153 5.84202 10.6163 7.31772 10.4948L3.88022 3.59375C3.70661 3.24652 3.7198 2.90798 3.9198 2.57812C4.1198 2.24826 4.41911 2.08333 4.81772 2.08333H9.14064C9.53994 2.08333 9.90036 2.18749 10.2219 2.39583C10.5434 2.60416 10.7993 2.88194 10.9896 3.22916L12.5 6.25L14.0104 3.22916C14.2014 2.88194 14.4577 2.60416 14.7792 2.39583C15.1007 2.18749 15.4608 2.08333 15.8594 2.08333H20.1823C20.5816 2.08333 20.8813 2.24826 21.0813 2.57812C21.2813 2.90798 21.2941 3.24652 21.1198 3.59375L17.7083 10.4427C19.184 10.5816 20.4212 11.1892 21.4198 12.2656C22.4184 13.342 22.9174 14.6354 22.9167 16.1458C22.9167 17.7431 22.3611 19.0972 21.25 20.2083C20.1389 21.3194 18.7847 21.875 17.1875 21.875C17.0313 21.875 16.8705 21.8705 16.7052 21.8615C16.5399 21.8524 16.3795 21.8309 16.224 21.7969C15.6858 22.1441 15.1042 22.4177 14.4792 22.6177C13.8542 22.8177 13.1945 22.9174 12.5 22.9167ZM12.5 17.5521L11.224 18.5156C11.1198 18.6024 11.0156 18.6069 10.9115 18.5292C10.8073 18.4514 10.7726 18.3514 10.8073 18.2292L11.3021 16.6406L10.0261 15.7292C9.92189 15.6424 9.88716 15.5424 9.92189 15.4292C9.95661 15.316 10.0434 15.2597 10.1823 15.2604H11.7448L12.2396 13.5677C12.2743 13.4462 12.3611 13.3854 12.5 13.3854C12.6389 13.3854 12.7257 13.4462 12.7604 13.5677L13.2552 15.2604H14.8177C14.9566 15.2604 15.0434 15.317 15.0781 15.4302C15.1129 15.5434 15.0781 15.6431 14.974 15.7292L13.6979 16.6406L14.1927 18.2292C14.2274 18.3507 14.1927 18.4507 14.0886 18.5292C13.9844 18.6076 13.8802 18.6031 13.7761 18.5156L12.5 17.5521ZM15.5469 10.1042L18.5156 4.16666H15.8854L13.6719 8.59375L14.1667 9.58333C14.4097 9.65277 14.6441 9.72673 14.8698 9.8052C15.0955 9.88368 15.3212 9.98333 15.5469 10.1042Z" fill="#E7EBF7"/>
</g>
</svg>
