<svg width="25" height="26" viewBox="0 0 25 26" fill="none" xmlns="http://www.w3.org/2000/svg">
<g id="fluent-mdl2:party-leader" clip-path="url(#clip0_1_83)">
<path id="Vector" d="M14.2578 12.5479C14.5671 12.6699 14.8682 12.8042 15.1611 12.9507C15.4541 13.0972 15.7389 13.264 16.0156 13.4512C15.8366 13.6465 15.6738 13.8499 15.5273 14.0615C15.3809 14.2731 15.2466 14.501 15.1245 14.7451C14.4979 14.3382 13.8306 14.029 13.1226 13.8174C12.4146 13.6058 11.6862 13.5 10.9375 13.5C10.2214 13.5 9.52962 13.5936 8.8623 13.7808C8.19499 13.9679 7.57243 14.2284 6.99463 14.562C6.41683 14.8957 5.89193 15.3026 5.41992 15.7827C4.94792 16.2629 4.54102 16.7918 4.19922 17.3696C3.85742 17.9474 3.59294 18.57 3.40576 19.2373C3.21859 19.9046 3.125 20.5964 3.125 21.3125H1.5625C1.5625 20.3359 1.70492 19.396 1.98975 18.4927C2.27458 17.5894 2.68555 16.7552 3.22266 15.9902C3.75977 15.2253 4.39453 14.5457 5.12695 13.9517C5.85938 13.3576 6.68945 12.8896 7.61719 12.5479C6.69759 11.9456 5.98145 11.1888 5.46875 10.2773C4.95605 9.36589 4.69564 8.35677 4.6875 7.25C4.6875 6.38737 4.85026 5.57764 5.17578 4.8208C5.5013 4.06396 5.94482 3.40072 6.50635 2.83105C7.06787 2.26139 7.73112 1.8138 8.49609 1.48828C9.26107 1.16276 10.0749 1 10.9375 1C11.8001 1 12.6099 1.16276 13.3667 1.48828C14.1235 1.8138 14.7868 2.25732 15.3564 2.81885C15.9261 3.38037 16.3737 4.04362 16.6992 4.80859C17.0247 5.57357 17.1875 6.38737 17.1875 7.25C17.1875 7.78711 17.1224 8.31201 16.9922 8.82471C16.862 9.3374 16.6667 9.82161 16.4062 10.2773C16.1458 10.7331 15.8407 11.1522 15.4907 11.5347C15.1408 11.9172 14.7298 12.2549 14.2578 12.5479ZM6.25 7.25C6.25 7.90104 6.37207 8.50732 6.61621 9.06885C6.86035 9.63037 7.19401 10.1268 7.61719 10.5581C8.04036 10.9894 8.53678 11.3271 9.10645 11.5713C9.67611 11.8154 10.2865 11.9375 10.9375 11.9375C11.5804 11.9375 12.1867 11.8154 12.7563 11.5713C13.326 11.3271 13.8224 10.9935 14.2456 10.5703C14.6688 10.1471 15.0065 9.65072 15.2588 9.08105C15.5111 8.51139 15.6331 7.90104 15.625 7.25C15.625 6.6071 15.5029 6.00081 15.2588 5.43115C15.0146 4.86149 14.681 4.36507 14.2578 3.94189C13.8346 3.51872 13.3341 3.18099 12.7563 2.92871C12.1785 2.67643 11.5723 2.55436 10.9375 2.5625C10.2865 2.5625 9.68018 2.68457 9.11865 2.92871C8.55713 3.17285 8.06071 3.50651 7.62939 3.92969C7.19808 4.35286 6.86035 4.85335 6.61621 5.43115C6.37207 6.00895 6.25 6.61523 6.25 7.25ZM24.2188 17.4062C24.2188 17.8294 24.1536 18.2404 24.0234 18.6392C23.8932 19.0379 23.6979 19.4082 23.4375 19.75V26L20.3125 24.4375L17.1875 26V19.75C16.9352 19.4082 16.744 19.0379 16.6138 18.6392C16.4836 18.2404 16.4144 17.8294 16.4062 17.4062C16.4062 16.8691 16.508 16.3646 16.7114 15.8926C16.9149 15.4206 17.1916 15.0096 17.5415 14.6597C17.8914 14.3097 18.3065 14.029 18.7866 13.8174C19.2668 13.6058 19.7754 13.5 20.3125 13.5C20.8496 13.5 21.3542 13.6017 21.8262 13.8052C22.2982 14.0086 22.7091 14.2894 23.0591 14.6475C23.409 15.0055 23.6898 15.4206 23.9014 15.8926C24.113 16.3646 24.2188 16.8691 24.2188 17.4062ZM20.3125 15.0625C19.987 15.0625 19.6818 15.1235 19.397 15.2456C19.1121 15.3677 18.8639 15.5345 18.6523 15.7461C18.4408 15.9577 18.2739 16.2059 18.1519 16.4907C18.0298 16.7756 17.9688 17.0807 17.9688 17.4062C17.9688 17.7318 18.0298 18.0369 18.1519 18.3218C18.2739 18.6066 18.4408 18.8548 18.6523 19.0664C18.8639 19.278 19.1121 19.4448 19.397 19.5669C19.6818 19.689 19.987 19.75 20.3125 19.75C20.638 19.75 20.9432 19.689 21.228 19.5669C21.5129 19.4448 21.7611 19.278 21.9727 19.0664C22.1842 18.8548 22.3511 18.6066 22.4731 18.3218C22.5952 18.0369 22.6562 17.7318 22.6562 17.4062C22.6562 17.0807 22.5952 16.7756 22.4731 16.4907C22.3511 16.2059 22.1842 15.9577 21.9727 15.7461C21.7611 15.5345 21.5129 15.3677 21.228 15.2456C20.9432 15.1235 20.638 15.0625 20.3125 15.0625ZM21.875 23.4731V20.9829C21.3867 21.2026 20.8659 21.3125 20.3125 21.3125C19.7591 21.3125 19.2383 21.2026 18.75 20.9829V23.4731C19.0104 23.3429 19.2708 23.2168 19.5312 23.0947C19.7917 22.9727 20.0521 22.8384 20.3125 22.6919C20.5729 22.8302 20.8333 22.9604 21.0938 23.0825C21.3542 23.2046 21.6146 23.3348 21.875 23.4731Z" fill="#E7EBF7" stroke="#E7EBF7" stroke-width="0.5"/>
</g>
<defs>
<clipPath id="clip0_1_83">
<rect width="25" height="26" fill="white"/>
</clipPath>
</defs>
</svg>
