<svg width="26" height="26" viewBox="0 0 26 26" fill="none" xmlns="http://www.w3.org/2000/svg">
<g id="mdi:help-outline">
<path id="Vector" d="M23.1146 9.57291C24.4167 8.27083 23.8229 6.75 23.1146 6.01041L19.9896 2.88541C18.6771 1.58333 17.1667 2.17708 16.4271 2.88541L14.6562 4.66666H11.9583C9.97917 4.66666 8.83333 5.70833 8.25 6.90625L3.625 11.5312V15.6979L2.88541 16.4271C1.58333 17.7396 2.17708 19.25 2.88541 19.9896L6.01041 23.1146C6.57291 23.6771 7.17708 23.8854 7.75 23.8854C8.48958 23.8854 9.16666 23.5208 9.57291 23.1146L12.3854 20.2917H16.125C17.8958 20.2917 18.7917 19.1875 19.1146 18.1042C20.2917 17.7917 20.9375 16.8958 21.1979 16.0208C22.8125 15.6042 23.4167 14.0729 23.4167 13V9.875H22.8021L23.1146 9.57291ZM21.3333 13C21.3333 13.4687 21.1354 14.0417 20.2917 14.0417H19.25V15.0833C19.25 15.5521 19.0521 16.125 18.2083 16.125H17.1667V17.1667C17.1667 17.6354 16.9687 18.2083 16.125 18.2083H11.5312L8.11458 21.625C7.79166 21.9271 7.60416 21.75 7.48958 21.6354L4.375 18.5312C4.07291 18.2083 4.25 18.0208 4.36458 17.9062L5.70833 16.5521V12.3854L7.79166 10.3021V11.9583C7.79166 13.2187 8.625 15.0833 10.9167 15.0833C13.2083 15.0833 14.0417 13.2187 14.0417 11.9583H21.3333V13ZM21.6354 8.09375L19.8646 9.875H11.9583V11.9583C11.9583 12.4271 11.7604 13 10.9167 13C10.0729 13 9.875 12.4271 9.875 11.9583V8.83333C9.875 8.35416 10.0521 6.75 11.9583 6.75H15.5104L17.8854 4.375C18.2083 4.07291 18.3958 4.25 18.5104 4.36458L21.625 7.46875C21.9271 7.79166 21.75 7.97916 21.6354 8.09375Z" fill="#E7EBF7"/>
</g>
</svg>
